/* XPM */
static char * close_active_xpm[] = {
"14 14 54 1",
" 	c None",
".	c #D5D5D5",
"+	c #D5CBC9",
"@	c #D4A595",
"#	c #D68062",
"$	c #DA724C",
"%	c #D4D4D4",
"&	c #D4D3D3",
"*	c #D4B6AD",
"=	c #D9734B",
"-	c #E36C3E",
";	c #E9764D",
">	c #EC7951",
",	c #E36C3F",
"'	c #D9744C",
")	c #D4B6AE",
"!	c #D3D3D3",
"~	c #D3B5AC",
"{	c #DC6C3A",
"]	c #E9754B",
"^	c #EF7C53",
"/	c #F07D53",
"(	c #D2C9C6",
"_	c #D9734C",
":	c #D9744D",
"<	c #D2A394",
"[	c #D2A494",
"}	c #D57F61",
"|	c #D58061",
"1	c #DA724D",
"2	c #D9724D",
"3	c #D57F5F",
"4	c #D57F60",
"5	c #CFA191",
"6	c #E36C40",
"7	c #E36D40",
"8	c #CFA192",
"9	c #CDC3C0",
"0	c #D8744C",
"a	c #EA754B",
"b	c #D8754D",
"c	c #CCCCCC",
"d	c #CEB0A8",
"e	c #DC6C3C",
"f	c #CBCBCB",
"g	c #CBCACA",
"h	c #CDB0A7",
"i	c #D8734C",
"j	c #D8744E",
"k	c #CDB0A8",
"l	c #CACACA",
"m	c #CAC1BE",
"n	c #CD9F90",
"o	c #D47F5F",
"...+@#$$#@+...",
"%&*=-;>>;,')&%",
"!~{]^/^^/^]{~!",
"(_]^^^^^^^^]:(",
"<,^^^^^^^^^^,[",
"};/^^^^^^^^/;|",
"1>^^^^^^^^^^>1",
"2>^^^^^^^^^^>2",
"3;/^^^^^^^^/;4",
"56^^^^^^^^^^78",
"90a^^^^^^^^ab9",
"cdea^/^^/^aedc",
"fghi7;>>;6jkgf",
"lllmno22onmlll"};
