/* XPM */
static char * close_prelight_xpm[] = {
"16 16 58 1",
" 	c None",
".	c #D5D5D5",
"+	c #D4C2BC",
"@	c #D39781",
"#	c #D67C5C",
"$	c #D9714B",
"%	c #D4D4D4",
"&	c #D4D1D0",
"*	c #D3957F",
"=	c #DB6E47",
"-	c #E2724B",
";	c #E7764E",
">	c #EA7850",
",	c #DB6F48",
"'	c #D4D2D1",
")	c #D3D3D3",
"!	c #D3D0CF",
"~	c #D48569",
"{	c #E07149",
"]	c #EF7C53",
"^	c #D2947E",
"/	c #EC7A51",
"(	c #D2957F",
"_	c #D1BFB9",
":	c #DB6E48",
"<	c #D06C48",
"[	c #E5774F",
"}	c #D1C0B9",
"|	c #D29680",
"1	c #773E29",
"2	c #85452E",
"3	c #DF744D",
"4	c #D16C49",
"5	c #D57B5B",
"6	c #E4764F",
"7	c #D57C5C",
"8	c #D9714C",
"9	c #E1754E",
"0	c #87462F",
"a	c #DE734D",
"b	c #D8714C",
"c	c #E0744E",
"d	c #D57B5A",
"e	c #D0947E",
"f	c #D0957F",
"g	c #CDBBB5",
"h	c #CCCCCC",
"i	c #CF937C",
"j	c #CF937D",
"k	c #CCC9C9",
"l	c #D28367",
"m	c #CBCBCB",
"n	c #CBC9C8",
"o	c #CF917B",
"p	c #CACACA",
"q	c #CAB9B3",
"r	c #CE937D",
"s	c #D47B5A",
"....+@#$$#@+....",
"%%&*=-;>>;-,*'%%",
")!~{>]]]]]]>{~!)",
")^{/]]]]]]]]/{()",
"_:>]]<[]][<]]>:}",
"|-]]<1233214]]-|",
"5;]]6212212[]];7",
"8>]]]90112a]]]>8",
"b>]]]c0112a]]]>b",
"d;]]6212212[]];5",
"e-]]<1233214]]-f",
"g:>]]4[]][4]]>,g",
"hi{/]]]]]]]]/{jh",
"hkl{>]]]]]]>{lkh",
"mmno:-;>>;-:jnmm",
"ppppqrsbbsrqpppp"};
