/* XPM */
static char * title_4_active_xpm[] = {
"9 32 27 1",
" 	c None",
".	c #B6B6B6",
"+	c #B5B5B5",
"@	c #B4B4B4",
"#	c #F8F8F8",
"$	c #DBDBDB",
"%	c #DADADA",
"&	c #D9D9D9",
"*	c #D8D8D8",
"=	c #D7D7D7",
"-	c #D6D6D6",
";	c #D5D5D5",
">	c #D4D4D4",
",	c #D3D3D3",
"'	c #D2D2D2",
")	c #D1D1D1",
"!	c #D0D0D0",
"~	c #CFCFCF",
"{	c #CECECE",
"]	c #CDCDCD",
"^	c #CCCCCC",
"/	c #CBCBCB",
"(	c #CACACA",
"_	c #C9C9C9",
":	c #C8C8C8",
"<	c #ABABAB",
"[	c #AEAEAE",
"..+@..+@@",
"#########",
"$$$$$$$$$",
"%%%%%%%%%",
"%%%%%%%%%",
"&&&&&&&&&",
"*********",
"=========",
"=========",
"-------**",
";;;;;;;;;",
";;;;;;;;;",
">>>>>>>>>",
",,,,,,,,,",
",,,,,,,,,",
"'''''''''",
")))))))))",
")))))))))",
"!!!!!!!!!",
"~~~~~~~~~",
"{{{{{{{{{",
"{{{{{{{{{",
"]]]]]]]]]",
"^^^^^^^^^",
"^^^^^^^^^",
"/////////",
"(((((((((",
"(((((((((",
"_________",
":::::::::",
":::::::::",
"<<<<<<<<["};
