/* XPM */
static char * close_active_xpm[] = {
"16 16 47 1",
" 	c None",
".	c #D5D5D5",
"+	c #D4C2BC",
"@	c #D39781",
"#	c #D67C5C",
"$	c #D9714B",
"%	c #D4D4D4",
"&	c #D4D1D0",
"*	c #D3957F",
"=	c #DB6E47",
"-	c #E2724B",
";	c #E7764E",
">	c #EA7850",
",	c #DB6F48",
"'	c #D4D2D1",
")	c #D3D3D3",
"!	c #D3D0CF",
"~	c #D48569",
"{	c #E07149",
"]	c #EF7C53",
"^	c #D2947E",
"/	c #EC7A51",
"(	c #D2957F",
"_	c #D1BFB9",
":	c #DB6E48",
"<	c #D1C0B9",
"[	c #D29680",
"}	c #D57B5B",
"|	c #D57C5C",
"1	c #D9714C",
"2	c #D8714C",
"3	c #D57B5A",
"4	c #D0947E",
"5	c #D0957F",
"6	c #CDBBB5",
"7	c #CCCCCC",
"8	c #CF937C",
"9	c #CF937D",
"0	c #CCC9C9",
"a	c #D28367",
"b	c #CBCBCB",
"c	c #CBC9C8",
"d	c #CF917B",
"e	c #CACACA",
"f	c #CAB9B3",
"g	c #CE937D",
"h	c #D47B5A",
"....+@#$$#@+....",
"%%&*=-;>>;-,*'%%",
")!~{>]]]]]]>{~!)",
")^{/]]]]]]]]/{()",
"_:>]]]]]]]]]]>:<",
"[-]]]]]]]]]]]]-[",
"};]]]]]]]]]]]];|",
"1>]]]]]]]]]]]]>1",
"2>]]]]]]]]]]]]>2",
"3;]]]]]]]]]]]];}",
"4-]]]]]]]]]]]]-5",
"6:>]]]]]]]]]]>,6",
"78{/]]]]]]]]/{97",
"70a{>]]]]]]>{a07",
"bbcd:-;>>;-:9cbb",
"eeeefgh22hgfeeee"};
