/* XPM */
static char * close_inactive_xpm[] = {
"16 16 61 1",
" 	c None",
".	c #D4D4D4",
"+	c #D4CBC8",
"@	c #D3B5AA",
"#	c #D5A898",
"$	c #D7A390",
"%	c #D5D3D3",
"&	c #D3B4A9",
"*	c #D7A08D",
"=	c #DBA390",
"-	c #DEA591",
";	c #DFA692",
">	c #D7A18E",
",	c #D4D3D3",
"'	c #D3D3D3",
")	c #D4D2D2",
"!	c #D4AC9E",
"~	c #D9A28E",
"{	c #E1A793",
"]	c #D2D2D2",
"^	c #D2B3A8",
"/	c #D2B4A9",
"(	c #D1C9C5",
"_	c #D6A08D",
":	c #D2C9C6",
"<	c #D1B3A8",
"[	c #D9A18E",
"}	c #E0A692",
"|	c #D3A696",
"1	c #DCA38F",
"2	c #D4A08E",
"3	c #DDA490",
"4	c #DFA591",
"5	c #D2A595",
"6	c #DBA28E",
"7	c #CFB1A6",
"8	c #D8A08D",
"9	c #CFB2A7",
"0	c #CCC4C0",
"a	c #D49E8B",
"b	c #DEA490",
"c	c #CDC4C1",
"d	c #CDCDCD",
"e	c #CEB0A4",
"f	c #D69F8B",
"g	c #CFB0A5",
"h	c #CCCCCC",
"i	c #CDCBCB",
"j	c #D0A89A",
"k	c #CBCBCB",
"l	c #CBCACA",
"m	c #CDAEA3",
"n	c #D39D8A",
"o	c #D69E8B",
"p	c #D9A08C",
"q	c #DAA18D",
"r	c #CEAFA4",
"s	c #CBC2BF",
"t	c #CDAFA4",
"u	c #D0A393",
"v	c #D29E8C",
"....+@#$$#@+....",
"..%&*=-;;-=>&,..",
"')!~-{{{{{{-~!)'",
"]^~;{{{{{{{{;~/]",
"(_-{{{{{{{{{{-_:",
"<[}}}}}}}}}}}}[/",
"|1}}}}}}}}}}}}1|",
"23}}}}}}}}}}}}32",
"2144444444444412",
"5644444444444465",
"7844444444444489",
"0a6bbbbbbbbbb6ac",
"def1bbbbbbbb1fgd",
"hijf6bbbbbb6fjih",
"kklmnopqqponrlkk",
"kkkkstuvvutskkkk"};
