/* XPM */
static char * hide_pressed_xpm[] = {
"16 16 33 1",
" 	c None",
".	c #D5D5D5",
"+	c #CCCCCC",
"@	c #BABABA",
"#	c #B0B0B0",
"$	c #ADADAD",
"%	c #D4D4D4",
"&	c #D3D3D3",
"*	c #B9B9B9",
"=	c #B4B4B4",
"-	c #BBBBBB",
";	c #AEAEAE",
">	c #D2D2D2",
",	c #B3B3B3",
"'	c #B2B2B2",
")	c #C0C0C0",
"!	c #B8B8B8",
"~	c #BDBDBD",
"{	c #CACACA",
"]	c #BFBFBF",
"^	c #6B6B6B",
"/	c #606060",
"(	c #6C6C6C",
"_	c #BCBCBC",
":	c #AFAFAF",
"<	c #B7B7B7",
"[	c #C5C5C5",
"}	c #C6C6C6",
"|	c #B6B6B6",
"1	c #CBCBCB",
"2	c #B1B1B1",
"3	c #B5B5B5",
"4	c #C3C3C3",
"....+@#$$#@+....",
"%%&*$=*--*=;*&%%",
"&>,'-))))))-',>&",
"&!'~))))))))~'*&",
"{$-))))))))))-${",
"!=))))))))))))=*",
"#*))]******]))*#",
"$-)-^//////^-)-$",
"$-)-(//////(_)-$",
":*))))))))))))*:",
"<=))))))))))))=<",
"[$-))))))))))-;}",
"+|'~))))))))~'|+",
"+12'-))))))-'21+",
"11{3$=*--*=$|{11",
"{{{{43:$$:34{{{{"};
