/* XPM */
static char * maximize_pressed_xpm[] = {
"16 16 35 1",
" 	c None",
".	c #D5D5D5",
"+	c #CCCCCC",
"@	c #BABABA",
"#	c #B0B0B0",
"$	c #ADADAD",
"%	c #D4D4D4",
"&	c #D3D3D3",
"*	c #B9B9B9",
"=	c #B4B4B4",
"-	c #BBBBBB",
";	c #AEAEAE",
">	c #D2D2D2",
",	c #B3B3B3",
"'	c #B2B2B2",
")	c #C0C0C0",
"!	c #B8B8B8",
"~	c #BDBDBD",
"{	c #CACACA",
"]	c #A6A6A6",
"^	c #B5B5B5",
"/	c #696969",
"(	c #5C5C5C",
"_	c #606060",
":	c #A8A8A8",
"<	c #686868",
"[	c #6A6A6A",
"}	c #AFAFAF",
"|	c #B7B7B7",
"1	c #C5C5C5",
"2	c #C6C6C6",
"3	c #B6B6B6",
"4	c #CBCBCB",
"5	c #B1B1B1",
"6	c #C3C3C3",
"....+@#$$#@+....",
"%%&*$=*--*=;*&%%",
"&>,'-))))))-',>&",
"&!'~))))))))~'*&",
"{$-)))#]]]=))-${",
"!=))))^/((_^))=*",
"#*))'^)^/((:))*#",
"$-)):<,)^[(:))-$",
"$-)):(<,)^[:))-$",
"}*)):((/^)^'))*}",
"|=))=_((/^))))=|",
"1$-))=]]]#)))-;2",
"+3'~))))))))~'3+",
"+45'-))))))-'54+",
"44{^$=*--*=$3{44",
"{{{{6^}$$}^6{{{{"};
