/* XPM */
static char * right_inactive_xpm[] = {
"3 10 3 1",
" 	c None",
".	c #E1E0E1",
"+	c #AEAEAE",
"..+",
"..+",
"..+",
"..+",
"..+",
"..+",
"..+",
"..+",
"..+",
"..+"};
