/* XPM */
static char * shade_pressed_xpm[] = {
"24 24 20 1",
" 	c None",
".	c #D9D9D9",
"+	c #D8D8D8",
"@	c #D7D7D7",
"#	c #D6D6D6",
"$	c #D5D5D5",
"%	c #D4D4D4",
"&	c #D3D3D3",
"*	c #57514D",
"=	c #342C27",
"-	c #D2D2D2",
";	c #D1D1D1",
">	c #D0D0D0",
",	c #CFCFCF",
"'	c #CECECE",
")	c #CDCDCD",
"!	c #CCCCCC",
"~	c #CBCBCB",
"{	c #CACACA",
"]	c #C9C9C9",
"........................",
"++++++++++++++++++++++++",
"@@@@@@@@@@@@@@@@@@@@@@@@",
"@@@@@@@@@@@@@@@@@@@@@@@@",
"#######++#######++######",
"$$$$$$$$$$$$$$$$$$$$$$$$",
"$$$$$$$$$$$$$$$$$$$$$$$$",
"%%%%%%%%%%%%%%%%%%%%%%%%",
"&&&&&&&&&&&**&&&&&&&&&&&",
"&&&&&&&&&&*==*&&&&&&&&&&",
"---------*====*---------",
";;;;;;;;*=*==*=*;;;;;;;;",
";;;;;;;;;*;==;*;;;;;;;;;",
">>>>>>>>>>>==>>>>>>>>>>>",
",,,,,,,,,,,==,,,,,,,,,,,",
"'''''''''''=='''''''''''",
"''''''''''''''''''''''''",
"))))))))))))))))))))))))",
"!!!!!!!!!!!!!!!!!!!!!!!!",
"!!!!!!!!!!!!!!!!!!!!!!!!",
"~~~~~~~~~~~~~~~~~~~~~~~~",
"{{{{{{{{{{{{{{{{{{{{{{{{",
"{{{{{{{{{{{{{{{{{{{{{{{{",
"]]]]]]]]]]]]]]]]]]]]]]]]"};
