/* XPM */
static char * stick_toggled_inactive_xpm[] = {
"24 24 5 1",
" 	c None",
".	c #EBEBEB",
"+	c #E2E2E1",
"@	c #898480",
"#	c #6D6662",
"........................",
"........................",
"........................",
"........................",
"........................",
"........................",
"........................",
"........................",
".........+@##@+.........",
"........+@####@+........",
"........@#@++@#@........",
"........##+..+##........",
"........##+..+##........",
"........@#@++@#@........",
"........+@####@+........",
".........+@##@+.........",
"........................",
"........................",
"........................",
"........................",
"........................",
"........................",
"........................",
"........................"};
