/* XPM */
static char * maximize_inactive_xpm[] = {
"14 14 23 1",
" 	c None",
".	c #D4D4D4",
"+	c #D2D2D2",
"@	c #CACACA",
"#	c #C4C4C4",
"$	c #C1C1C1",
"%	c #CDCDCD",
"&	c #C2C2C2",
"*	c #C3C3C3",
"=	c #C7C7C7",
"-	c #C9C9C9",
";	c #D3D3D3",
">	c #CCCCCC",
",	c #C6C6C6",
"'	c #D0D0D0",
")	c #C8C8C8",
"!	c #C5C5C5",
"~	c #BEBEBE",
"{	c #C0C0C0",
"]	c #CBCBCB",
"^	c #BFBFBF",
"/	c #BDBDBD",
"(	c #BCBCBC",
"...+@#$$#@+...",
"..%&*=--=*&%..",
";>$,------,$>;",
"'$,--------,$'",
")&-))))))))-&)",
"&!))))))))))!$",
"~=))))))))))=~",
"~,==========,~",
"$#==========#{",
"!{=========={!",
"]~*,,,,,,,,*^]",
">=~*,,,,,,*~=>",
"]],/^*##*^~,]]",
"]]]-&~((~&-]]]"};
