/* XPM */
static char * title_2_inactive_xpm[] = {
"9 30 26 1",
" 	c None",
".	c #B8B8B8",
"+	c #B7B7B7",
"@	c #B6B6B6",
"#	c #F9F9F9",
"$	c #D9D9D9",
"%	c #DADADA",
"&	c #D8D8D8",
"*	c #D7D7D7",
"=	c #D6D6D6",
"-	c #D5D5D5",
";	c #D4D4D4",
">	c #D3D3D3",
",	c #D2D2D2",
"'	c #D1D1D1",
")	c #D0D0D0",
"!	c #CFCFCF",
"~	c #CECECE",
"{	c #CDCDCD",
"]	c #CCCCCC",
"^	c #CBCBCB",
"/	c #CACACA",
"(	c #C9C9C9",
"_	c #C8C8C8",
":	c #ACACAC",
"<	c #AFAFAF",
"..+@..+@@",
"#########",
"$$$$$$$$$",
"%%%%%%%%%",
"%%%%%%%%%",
"$$$$$$$$$",
"&&&&&&&&&",
"*********",
"=======&&",
"-------==",
"---------",
";;;;;;;;;",
">>>>>>>>>",
">>>>>>>>>",
",,,,,,,,,",
"'''''''''",
"'''''''''",
")))))))))",
"!!!!!!!!!",
"~~~~~~~~~",
"~~~~~~~~~",
"{{{{{{{{{",
"]]]]]]]]]",
"^^^^^^^^^",
"/////////",
"/////////",
"(((((((((",
"_________",
"(((((((((",
"::::::::<"};
