/* XPM */
static char * top_right_active_xpm[] = {
"9 30 50 1",
" 	c None",
".	c #BABABA",
"+	c #C0C0C0",
"@	c #CFCFCF",
"#	c #F7F6F6",
"$	c #F1F1F1",
"%	c #D5D5D4",
"&	c #A2A2A1",
"*	c #C8C8C8",
"=	c #DCDCDC",
"-	c #E0E0E0",
";	c #E8E8E8",
">	c #F3F3F3",
",	c #D5D4D4",
"'	c #B9B9B9",
")	c #DADADA",
"!	c #E7E7E7",
"~	c #E6E6E6",
"{	c #E3E3E3",
"]	c #D4D4D3",
"^	c #D9D9D9",
"/	c #A1A1A1",
"(	c #D8D8D8",
"_	c #CCCBCB",
":	c #CDCDCD",
"<	c #D7D7D7",
"[	c #DCDBDA",
"}	c #BFBFBF",
"|	c #DBDBDA",
"1	c #B8B8B8",
"2	c #D6D6D6",
"3	c #B4B4B4",
"4	c #D5D5D5",
"5	c #B3B3B3",
"6	c #B2B2B2",
"7	c #D4D4D4",
"8	c #D3D3D3",
"9	c #B1B1B1",
"0	c #B0B0B0",
"a	c #D2D2D2",
"b	c #D1D1D1",
"c	c #AFAFAF",
"d	c #D0D0D0",
"e	c #CECECE",
"f	c #AEAEAE",
"g	c #CCCCCC",
"h	c #CBCBCB",
"i	c #CACACA",
"j	c #C9C9C9",
"k	c #ABABAB",
".+@      ",
"#$%&*    ",
"=-;>,'   ",
"))))!~'  ",
"))))){]* ",
"^^^^^^~/ ",
"(((((((_:",
"<<<<<<<[}",
"<<<<<<<|1",
"2222222(3",
"444444445",
"444444446",
"777777776",
"888888889",
"888888880",
"aaaaaaaa0",
"bbbbbbbbc",
"bbbbbbbbc",
"ddddddddc",
"@@@@@@@@c",
"eeeeeeeef",
"eeeeeeeef",
"::::::::f",
"ggggggggf",
"ggggggggf",
"hhhhhhhhf",
"iiiiiiiif",
"iiiiiiiif",
"jjjjjjjjf",
"kkkkkkkkf"};
