/* XPM */
static char * hide_pressed_xpm[] = {
"14 14 34 1",
" 	c None",
".	c #D5D5D5",
"+	c #D0D0D0",
"@	c #C0C0C0",
"#	c #B2B2B2",
"$	c #AEAEAE",
"%	c #D4D4D4",
"&	c #D3D3D3",
"*	c #C6C6C6",
"=	c #AFAFAF",
"-	c #BABABA",
";	c #BDBDBD",
">	c #B3B3B3",
",	c #B0B0B0",
"'	c #C5C5C5",
")	c #B9B9B9",
"!	c #C1C1C1",
"~	c #CECECE",
"{	c #BEBEBE",
"]	c #B1B1B1",
"^	c #C2C2C2",
"/	c #9C9C9C",
"(	c #656565",
"_	c #666666",
":	c #676767",
"<	c #9D9D9D",
"[	c #C4C4C4",
"}	c #BBBBBB",
"|	c #BCBCBC",
"1	c #C8C8C8",
"2	c #C9C9C9",
"3	c #CCCCCC",
"4	c #CBCBCB",
"5	c #CACACA",
"...+@#$$#@+...",
"%&*=#-;;->,*&%",
"&'=)@!@@!@)=*&",
"~=-@@@@@@@@)=~",
"{#@@@!!!!@@@#{",
"]-!^@{{{{@^!-#",
"$;!/(____(/!;$",
"$;!/(_::_(<!;$",
"]-!^[[[[[[^!-]",
"}>@@@@@@@@@@>|",
"1=-@@@@@@@@-=2",
"3!=-@!@@!@-=!3",
"44@$>-;;->=@44",
"555*),$$,)*555"};
