/* XPM */
static char * maximize_prelight_xpm[] = {
"14 14 46 1",
" 	c None",
".	c #D5D5D5",
"+	c #D0D0D0",
"@	c #C0C0C0",
"#	c #B2B2B2",
"$	c #AEAEAE",
"%	c #D4D4D4",
"&	c #D3D3D3",
"*	c #C6C6C6",
"=	c #AFAFAF",
"-	c #BABABA",
";	c #BDBDBD",
">	c #B3B3B3",
",	c #B0B0B0",
"'	c #C5C5C5",
")	c #B9B9B9",
"!	c #C1C1C1",
"~	c #C2C2C2",
"{	c #CECECE",
"]	c #B6B6B6",
"^	c #B7B7B7",
"/	c #B8B8B8",
"(	c #BFBFBF",
"_	c #BEBEBE",
":	c #7C7C7C",
"<	c #787878",
"[	c #797979",
"}	c #979797",
"|	c #B1B1B1",
"1	c #ACACAC",
"2	c #595959",
"3	c #565656",
"4	c #7A7A7A",
"5	c #AAAAAA",
"6	c #5A5A5A",
"7	c #585858",
"8	c #ADADAD",
"9	c #7D7D7D",
"0	c #575757",
"a	c #BBBBBB",
"b	c #BCBCBC",
"c	c #C8C8C8",
"d	c #C9C9C9",
"e	c #CCCCCC",
"f	c #CBCBCB",
"g	c #CACACA",
"...+@#$$#@+...",
"%&*=#-;;->,*&%",
"&'=)@!!!~@)=*&",
"{=-@!)]^/(!)={",
"_#@!~^:<[}@@#_",
"|-!-/@1234)!-#",
"$;!^:5@=6[/!;$",
"$;!/[78@19^!;$",
"|-!)4021@/-!-|",
"a>@(}[<:^~!@>b",
"c=-!(/^])!@-=d",
"e!=-@~!!!@-=!e",
"ff@$>-;;->=@ff",
"ggg*),$$,)*ggg"};
