/* XPM */
static char * close_prelight_xpm[] = {
"14 14 74 1",
" 	c None",
".	c #D5D5D5",
"+	c #D5CBC9",
"@	c #D4A595",
"#	c #D68062",
"$	c #DA724C",
"%	c #D4D4D4",
"&	c #D4D3D3",
"*	c #D4B6AD",
"=	c #D9734B",
"-	c #E36C3E",
";	c #E9764D",
">	c #EC7951",
",	c #E36C3F",
"'	c #D9744C",
")	c #D4B6AE",
"!	c #D3D3D3",
"~	c #D3B5AC",
"{	c #DC6C3A",
"]	c #E9754B",
"^	c #F07D54",
"/	c #EF7C53",
"(	c #D2C9C6",
"_	c #D9734C",
":	c #F17D54",
"<	c #E87850",
"[	c #EC7B52",
"}	c #F07C53",
"|	c #D9744D",
"1	c #D2A394",
"2	c #AE5A3C",
"3	c #A25438",
"4	c #E77850",
"5	c #AF5A3C",
"6	c #E87851",
"7	c #D2A494",
"8	c #D57F61",
"9	c #EC7A52",
"0	c #703A27",
"a	c #984F34",
"b	c #A35438",
"c	c #D58061",
"d	c #DA724D",
"e	c #E87951",
"f	c #9A5035",
"g	c #783E29",
"h	c #984E34",
"i	c #E67750",
"j	c #F07D53",
"k	c #D9724D",
"l	c #9A4F35",
"m	c #D57F5F",
"n	c #D57F60",
"o	c #CFA191",
"p	c #E36C40",
"q	c #AF5A3D",
"r	c #E36D40",
"s	c #CFA192",
"t	c #CDC3C0",
"u	c #D8744C",
"v	c #D8754D",
"w	c #CCCCCC",
"x	c #CEB0A8",
"y	c #DC6C3C",
"z	c #CBCBCB",
"A	c #CBCACA",
"B	c #CDB0A7",
"C	c #D8734C",
"D	c #D8744E",
"E	c #CDB0A8",
"F	c #CACACA",
"G	c #CAC1BE",
"H	c #CD9F90",
"I	c #D47F5F",
"...+@#$$#@+...",
"%&*=-;>>;,')&%",
"!~{]^^//^^]{~!",
"(_]:<[}}[<:]|(",
"1,^<2344356^,7",
"8;^930aa0b[^;c",
"d>/}efgghij/>d",
"k>/}6lgghij/>k",
"m;^930aa0b[^;n",
"op^<5b44bq6^rs",
"tu]:6[}}[6:]vt",
"wxy]^^//^^]yxw",
"zABCr;>>;pDEAz",
"FFFGHIkkIHGFFF"};
