/* XPM */
static char * hide_active_xpm[] = {
"14 14 27 1",
" 	c None",
".	c #D5D5D5",
"+	c #D0D0D0",
"@	c #C0C0C0",
"#	c #B2B2B2",
"$	c #AEAEAE",
"%	c #D4D4D4",
"&	c #D3D3D3",
"*	c #C6C6C6",
"=	c #AFAFAF",
"-	c #BABABA",
";	c #BDBDBD",
">	c #B3B3B3",
",	c #B0B0B0",
"'	c #C5C5C5",
")	c #B9B9B9",
"!	c #C1C1C1",
"~	c #CECECE",
"{	c #BEBEBE",
"]	c #B1B1B1",
"^	c #BBBBBB",
"/	c #BCBCBC",
"(	c #C8C8C8",
"_	c #C9C9C9",
":	c #CCCCCC",
"<	c #CBCBCB",
"[	c #CACACA",
"...+@#$$#@+...",
"%&*=#-;;->,*&%",
"&'=)@!@@!@)=*&",
"~=-@@@@@@@@)=~",
"{#@@@@@@@@@@#{",
"]-!@@@@@@@@!-#",
"$;@@@@@@@@@@;$",
"$;@@@@@@@@@@;$",
"]-!@@@@@@@@!-]",
"^>@@@@@@@@@@>/",
"(=-@@@@@@@@-=_",
":!=-@!@@!@-=!:",
"<<@$>-;;->=@<<",
"[[[*),$$,)*[[["};
