/* XPM */
static char * top_left_inactive_xpm[] = {
"9 30 50 1",
" 	c None",
".	c #CFCFCF",
"+	c #C0C0C0",
"@	c #BABABA",
"#	c #C8C8C8",
"$	c #A2A2A1",
"%	c #D5D5D4",
"&	c #F1F1F1",
"*	c #F7F6F6",
"=	c #B9B9B9",
"-	c #D5D4D4",
";	c #F3F3F3",
">	c #E8E8E8",
",	c #E0E0E0",
"'	c #DCDCDC",
")	c #E6E6E6",
"!	c #E7E7E7",
"~	c #DADADA",
"{	c #D4D4D3",
"]	c #E3E3E3",
"^	c #A1A1A1",
"/	c #D9D9D9",
"(	c #CDCDCD",
"_	c #CCCBCB",
":	c #D8D8D8",
"<	c #BFBFBF",
"[	c #DCDBDA",
"}	c #D7D7D7",
"|	c #B8B8B8",
"1	c #DBDBDA",
"2	c #B4B4B4",
"3	c #D6D6D6",
"4	c #B3B3B3",
"5	c #D5D5D5",
"6	c #B2B2B2",
"7	c #D4D4D4",
"8	c #B1B1B1",
"9	c #D3D3D3",
"0	c #B0B0B0",
"a	c #D2D2D2",
"b	c #AFAFAF",
"c	c #D1D1D1",
"d	c #D0D0D0",
"e	c #AEAEAE",
"f	c #CECECE",
"g	c #CCCCCC",
"h	c #CBCBCB",
"i	c #CACACA",
"j	c #C9C9C9",
"k	c #ABABAB",
"      .+@",
"    #$%&*",
"   =-;>,'",
"  =)!~~~~",
" #{]~~~~~",
" ^)//////",
"(_:::::::",
"<[}}}}}}}",
"|1}}}}}}}",
"2:3333333",
"455555555",
"655555555",
"677777777",
"899999999",
"099999999",
"0aaaaaaaa",
"bcccccccc",
"bcccccccc",
"bdddddddd",
"b........",
"effffffff",
"effffffff",
"e((((((((",
"egggggggg",
"egggggggg",
"ehhhhhhhh",
"eiiiiiiii",
"eiiiiiiii",
"ejjjjjjjj",
"ekkkkkkkk"};
