/* XPM */
static char * hide_active_xpm[] = {
"16 16 28 1",
" 	c None",
".	c #D5D5D5",
"+	c #CCCCCC",
"@	c #BABABA",
"#	c #B0B0B0",
"$	c #ADADAD",
"%	c #D4D4D4",
"&	c #D3D3D3",
"*	c #B9B9B9",
"=	c #B4B4B4",
"-	c #BBBBBB",
";	c #AEAEAE",
">	c #D2D2D2",
",	c #B3B3B3",
"'	c #B2B2B2",
")	c #C0C0C0",
"!	c #B8B8B8",
"~	c #BDBDBD",
"{	c #CACACA",
"]	c #AFAFAF",
"^	c #B7B7B7",
"/	c #C5C5C5",
"(	c #C6C6C6",
"_	c #B6B6B6",
":	c #CBCBCB",
"<	c #B1B1B1",
"[	c #B5B5B5",
"}	c #C3C3C3",
"....+@#$$#@+....",
"%%&*$=*--*=;*&%%",
"&>,'-))))))-',>&",
"&!'~))))))))~'*&",
"{$-))))))))))-${",
"!=))))))))))))=*",
"#*))))))))))))*#",
"$-))))))))))))-$",
"$-))))))))))))-$",
"]*))))))))))))*]",
"^=))))))))))))=^",
"/$-))))))))))-;(",
"+_'~))))))))~'_+",
"+:<'-))))))-'<:+",
"::{[$=*--*=$_{::",
"{{{{}[]$$][}{{{{"};
